<svg xmlns="http://www.w3.org/2000/svg" viewBox="0 0 133 198"><defs><style>.cls-1{fill:#fff;}</style></defs><title>Asset 1</title><g id="Layer_2" data-name="Layer 2"><g id="Layer_1-2" data-name="Layer 1"><path class="cls-1" d="M1,1H134q0,99,0,198H1Q1,100,1,1ZM39.31,126.83l0-1.85c2.24-.5,4.48-1.46,6.71-1.43,9.48.12,19,.92,28.43.72a94.9,94.9,0,0,0,21.06-2.46c5.42-1.37,7.34-6.84,6.26-13.08-.93-5.38-5.06-9.8-9.71-9.87-20.78-.32-41.57-.53-62.36-.73a19.52,19.52,0,0,0-3.95.53c-5.32,1.06-8.19,4.18-8.4,9.57a38.65,38.65,0,0,0,.61,7.94,155.38,155.38,0,0,1,1.35,45.23c-.72,5.93-1.51,11.86-1.91,17.81-.09,1.32,1.3,2.75,2,4.13,1.38-1,3.07-1.77,4.06-3.07A8.62,8.62,0,0,0,24.65,176c.79-8.44,1.59-16.88,2.15-25.34.8-12.16.36-24.18-2.82-36.11-1.81-6.81.85-9.55,7.93-9.55,19.15,0,38.31.15,57.46,0,4.26,0,6.25,1.51,6.24,5.7s-1.22,6.52-6.09,6.42C77.71,116.87,65.88,117,54,117c-4.47,0-9-.17-13.4.15-5.59.41-8.55,4-8.23,9.25.25,4.19,2.85,6.17,8.48,6.32,3.16.08,6.34-.12,9.49.11a26.68,26.68,0,0,1,5.07,1.36c-5.71,1.3-11.12,1.92-16.51,2.64-4.2.56-6.56,3.08-6.87,7.27-.34,4.53,2.17,7.42,6.29,8.35s8.21,1,12.33,1.45c1.84.18,3.69.2,5.54.29l.12,2.28c-2.67.31-5.39,1.1-8,.82-5.63-.61-10.8-.32-14,5.06A17.85,17.85,0,0,0,33,178.3c.73,2,3.35,4.44,5.25,4.56,13.06.83,26.16,1.69,39.22,1.3,7-.21,10.56-8.19,9.39-17.74-.74-6-5.57-10-12.48-9.25-2.23.23-4.22,2.75-6.32,4.23,1.95.82,3.85,2.2,5.85,2.37,6.15.51,6.87,1,6.57,7.18-.09,1.8-.45,3.59-.72,5.65-3.12.3-6.06.72-9,.84-8.48.33-17,.79-25.44.68-5.27-.07-7-2.79-7-8.19,0-4.73,2.53-5.29,6.66-5.58,6.54-.46,13.64-.89,17.59-7.45,1.59-2.65,3.51-2.84,6.12-3a63.51,63.51,0,0,0,13.21-1.74c3.69-1,5.3-4.42,5-8.32-.32-3.64-2.08-6.34-5.91-7.08-2.93-.56-5.89-.94-8.84-1.34-1.6-.22-3.22-.33-4.83-.48l0-1.3a38.9,38.9,0,0,1,4.73-.43c6,.16,12,.4,17.94.69,5.48.26,6.31,1.58,4.66,7-3.87,12.63-2.8,25.32-.22,38,.51,2.51,1.91,5.74,5.3,4.22,1.18-.53,2.09-4.24,1.46-5.84a44.34,44.34,0,0,1,0-34c2.76-7,0-13.21-6.23-15.07a29.87,29.87,0,0,0-8.83-1.47c-13.14.19-26.27.73-39.41,1A52.81,52.81,0,0,1,39.31,126.83ZM55.75,66A62.79,62.79,0,0,1,57,74.6c.38,11,.27,10.94-10.82,10.44-4-.18-5.78-2.07-5.75-5.91,0-2.33.49-4.74,0-7-.3-1.48-1.89-2.69-2.9-4-1.11,1-3.21,2.14-3.17,3.13a75.72,75.72,0,0,0,1.84,14.93c.39,1.56,3.43,3.45,5.31,3.5,12.26.32,24.53.29,36.8.09,2.14,0,4.25-1.39,6.38-2.13-2.32-1.27-4.51-3-7-3.66-1.95-.51-4.25.4-6.4.56-2.44.19-4.88.25-7.24.36-2-9.45-.79-10.62,8.22-9.76a46.08,46.08,0,0,0,9.83-.53c.92-.11,2.5-1.37,2.42-1.89a4.36,4.36,0,0,0-2-3,14.56,14.56,0,0,0-5.72-1.32c-3.48,0-7,.65-10.43.43a5.49,5.49,0,0,1-4-2.72c-3.47-8.28-3.79-8.53-12.6-8.85-2.92-.11-5.81-.88-9.59-1.49,6.08-5.42,35.05-4.64,37.62.4a25.09,25.09,0,0,1-3.78,1c-2.59.26-6.2-.35-6,3.43s3.92,3.34,6.71,3.51a12.84,12.84,0,0,0,2.48-.25c4.49-.63,7.57-4.09,7.86-8.87s-2-7.92-6.65-8.28c-9.75-.76-19.53-1.21-29.3-1.44-3.08-.07-6.6.22-9.18,1.67s-5.51,4.37-5.91,7c-.35,2.31,2,6.45,4.2,7.44C43.28,63.55,48.83,64.27,55.75,66ZM79,30.62c-.15,2.92-.7,5.63-.26,8.17.29,1.64,2.06,3,3.16,4.51A25.07,25.07,0,0,0,85.15,39c.53-1.1.17-2.62.27-3.94.17-2.2-.59-4.85,3.09-5.1,3.36-.23,6,.25,6.2,4.31.32,8.13.62,16.27.79,24.4.16,7.48-.1,15,.32,22.44.18,3.2,1.59,6.34,2.44,9.5l2.43-.07a64.42,64.42,0,0,0,1.38-8.08c.23-4.81.09-9.63.08-14.45q0-17.18-.08-34.35c0-4.43-2.54-7.09-6.44-8.53-2.58-1-5.28-1.57-7.93-2.34,7.22-.83,12.64-3.8,13.82-11.32.31-2-1.65-4.36-2.57-6.56L97,5.2a42.84,42.84,0,0,1-1.8,5.74c-.74,1.59-1.67,3.64-3.07,4.28-4.75,2.18-6.69.56-7.36-4.67C84.54,8.69,82.71,7,81.61,5.3a34.12,34.12,0,0,0-3,5.47c-.55,1.6-.34,3.46-.46,5.12-7.57.34-8.91-.77-10.28-7.39-.22-1.07-1.41-1.94-2.15-2.9-.93,1-2.38,1.77-2.69,2.9C61.2,14.9,66.18,21.22,73.38,22l4.29.47a4.92,4.92,0,0,1-3.94,1.41c-8.58-1.17-12.48,7.33-11.79,13.21.25,2.12,2.27,4,3.49,6,1.06-1.83,2.77-3.56,3.06-5.5C69.61,30,70.57,29.17,79,30.62Zm-45.1.06c0,1.68,0,3.46,0,5.23-.09,2.91-1,7,3,7.06,3.75,0,2.82-3.9,2.76-6.74,0-2,.35-5.36,1.35-5.69a10.75,10.75,0,0,1,7.62.29c1.33.69,1.43,3.9,1.93,6,.18.77-.38,1.76-.1,2.44a26.23,26.23,0,0,0,2.16,3.63c1.3-.83,3.13-1.36,3.81-2.55,3-5.25-.54-13.66-6.47-15.36-2.88-.83-5.9-1.16-8.86-1.72a10.87,10.87,0,0,1,6-1.84c5.81-.4,10.15-4.72,9.75-10.39C56.7,9.28,55,7.61,54,5.89c-1.08,1.4-2.93,2.71-3.09,4.21C50.39,15,47.22,15.92,43.27,16c-4.5.06-2.58-3.48-3.34-5.7-.52-1.53-2.45-2.57-3.75-3.83-.86,1.34-2.55,2.77-2.41,4,.37,3.18-.05,5.55-3.67,5.45-3.25-.09-6.81-.17-7.44-4.87-.19-1.43-1.61-2.7-2.47-4-1.11,1.67-3,3.26-3.18,5-.58,4.73,4.89,9.66,10.4,10,1.94.12,3.86.4,5.79.61a3.82,3.82,0,0,1-3,1.29c-9.19.51-13,4.57-13,13.8q0,22,.12,43.93A15.16,15.16,0,0,0,17.9,87c.5,1.28,2,2.16,3.07,3.22,1-1.36,2.63-2.65,2.82-4.11.35-2.76-.09-5.63-.28-8.46-.88-13.25-2-26.47.17-39.74C25,29.93,25.77,29.12,33.88,30.68Zm56.18,80.7-.16-2.21c-3.6-.62-7.18-1.63-10.79-1.77-10.44-.4-20.89-.49-31.34-.61-3,0-6.1-.26-8.91.5-2.21.6-4,2.59-6.05,4,2.16.9,4.3,2.53,6.47,2.58q21.7.44,43.41.18C85.16,114,87.6,112.29,90.06,111.38Z" transform="translate(-1 -1)"/><path d="M39.31,126.83a52.81,52.81,0,0,0,7.41.86c13.14-.27,26.27-.8,39.41-1A29.87,29.87,0,0,1,95,128.16c6.21,1.86,9,8.1,6.23,15.07a44.34,44.34,0,0,0,0,34c.63,1.6-.28,5.32-1.46,5.84-3.39,1.51-4.79-1.71-5.3-4.22-2.58-12.65-3.65-25.34.22-38,1.65-5.38.82-6.69-4.66-7-6-.29-12-.53-17.94-.69a38.9,38.9,0,0,0-4.73.43l0,1.3c1.61.16,3.23.26,4.83.48,3,.41,5.92.78,8.84,1.34,3.83.74,5.59,3.43,5.91,7.08.35,3.9-1.26,7.28-5,8.32a63.51,63.51,0,0,1-13.21,1.74c-2.61.16-4.52.35-6.12,3-3.95,6.56-11.05,7-17.59,7.45-4.14.29-6.63.85-6.66,5.58,0,5.4,1.73,8.11,7,8.19,8.48.12,17-.35,25.44-.68,3-.11,5.9-.54,9-.84.27-2.07.63-3.85.72-5.65.3-6.14-.42-6.67-6.57-7.18-2-.16-3.9-1.54-5.85-2.37,2.1-1.47,4.09-4,6.32-4.23,6.91-.7,11.75,3.27,12.48,9.25,1.17,9.55-2.37,17.53-9.39,17.74-13.05.39-26.16-.47-39.22-1.3-1.89-.12-4.52-2.6-5.25-4.56A17.85,17.85,0,0,1,34.3,162.4c3.25-5.38,8.41-5.67,14-5.06,2.61.28,5.33-.51,8-.82l-.12-2.28c-1.85-.09-3.7-.11-5.54-.29-4.12-.41-8.31-.54-12.33-1.45s-6.63-3.82-6.29-8.35c.31-4.19,2.67-6.71,6.87-7.27,5.4-.72,10.81-1.34,16.51-2.64a26.68,26.68,0,0,0-5.07-1.36c-3.15-.23-6.33,0-9.49-.11-5.63-.15-8.23-2.13-8.48-6.32-.31-5.29,2.65-8.84,8.23-9.25,4.45-.33,8.93-.15,13.4-.15,11.83,0,23.66-.17,35.49.08,4.86.1,6.08-2.38,6.09-6.42s-2-5.73-6.24-5.7c-19.15.14-38.31,0-57.46,0-7.08,0-9.74,2.75-7.93,9.55,3.18,11.92,3.62,24,2.82,36.11-.56,8.46-1.36,16.9-2.15,25.34a8.62,8.62,0,0,1-1.22,4.27c-1,1.3-2.68,2.07-4.06,3.07-.71-1.38-2.1-2.81-2-4.13.41-6,1.19-11.88,1.91-17.81a155.38,155.38,0,0,0-1.35-45.23,38.65,38.65,0,0,1-.61-7.94c.21-5.39,3.07-8.51,8.4-9.57a19.52,19.52,0,0,1,3.95-.53c20.79.2,41.57.41,62.36.73,4.65.07,8.78,4.49,9.71,9.87,1.08,6.24-.84,11.72-6.26,13.08a94.9,94.9,0,0,1-21.06,2.46c-9.47.2-18.95-.6-28.43-.72-2.23,0-4.47.93-6.71,1.43Zm17.54,15c-5.35,0-10.17-.2-15,.15-1.1.08-2.07,2-3.11,3.09.87.81,1.72,2.29,2.63,2.33,5.09.23,10.19.11,15.43.11Zm6.47,0,.43,5.76c4.74,0,9,.2,13.27-.13,1.13-.09,2.13-1.82,3.2-2.79-1.12-.94-2.18-2.61-3.36-2.7C72.62,141.65,68.34,141.85,63.32,141.85Z" transform="translate(-1 -1)"/><path d="M55.75,66c-6.92-1.73-12.47-2.45-17.36-4.65-2.21-1-4.55-5.13-4.2-7.44.4-2.63,3.32-5.55,5.91-7s6.09-1.74,9.18-1.67c9.78.23,19.56.68,29.3,1.44,4.7.37,6.94,3.52,6.65,8.28s-3.36,8.24-7.86,8.87a12.84,12.84,0,0,1-2.48.25c-2.79-.16-6.48.18-6.71-3.51s3.38-3.17,6-3.43a25.09,25.09,0,0,0,3.78-1c-2.57-5-31.54-5.82-37.62-.4,3.78.61,6.67,1.38,9.59,1.49,8.81.33,9.13.57,12.6,8.85a5.49,5.49,0,0,0,4,2.72c3.45.22,7-.47,10.43-.43a14.56,14.56,0,0,1,5.72,1.32,4.36,4.36,0,0,1,2,3c.08.53-1.5,1.78-2.42,1.89a46.08,46.08,0,0,1-9.83.53c-9-.87-10.19.31-8.22,9.76,2.36-.11,4.8-.17,7.24-.36,2.15-.16,4.45-1.07,6.4-.56,2.48.65,4.67,2.39,7,3.66-2.13.74-4.24,2.1-6.38,2.13-12.26.2-24.54.23-36.8-.09-1.87,0-4.91-1.93-5.31-3.5a75.72,75.72,0,0,1-1.84-14.93c0-1,2.06-2.08,3.17-3.13,1,1.33,2.6,2.55,2.9,4,.45,2.22,0,4.63,0,7,0,3.84,1.79,5.73,5.75,5.91,11.09.49,11.19.56,10.82-10.44A62.79,62.79,0,0,0,55.75,66Z" transform="translate(-1 -1)"/><path d="M79,30.62c-8.41-1.46-9.36-.64-10.5,7-.29,1.94-2,3.67-3.06,5.5-1.21-2-3.24-3.92-3.49-6-.69-5.88,3.22-14.38,11.79-13.21a4.92,4.92,0,0,0,3.94-1.41L73.38,22C66.18,21.22,61.2,14.9,63,8.49c.32-1.13,1.77-1.94,2.69-2.9.74,1,1.93,1.83,2.15,2.9,1.37,6.62,2.71,7.73,10.28,7.39.12-1.66-.1-3.52.46-5.12a34.12,34.12,0,0,1,3-5.47c1.1,1.74,2.93,3.4,3.17,5.25.67,5.23,2.61,6.85,7.36,4.67,1.4-.64,2.33-2.69,3.07-4.28A42.84,42.84,0,0,0,97,5.2l2-.27c.92,2.2,2.88,4.56,2.57,6.56C100.34,19,94.92,22,87.7,22.81c2.65.77,5.35,1.39,7.93,2.34,3.9,1.44,6.42,4.1,6.44,8.53q.06,17.17.08,34.35c0,4.82.15,9.64-.08,14.45a64.42,64.42,0,0,1-1.38,8.08l-2.43.07c-.85-3.17-2.26-6.3-2.44-9.5-.41-7.46-.16-15-.32-22.44-.17-8.14-.47-16.27-.79-24.4-.16-4.07-2.83-4.54-6.2-4.31-3.68.25-2.93,2.9-3.09,5.1-.1,1.33.26,2.84-.27,3.94a25.07,25.07,0,0,1-3.27,4.29c-1.1-1.49-2.87-2.87-3.16-4.51C78.27,36.26,78.83,33.55,79,30.62Z" transform="translate(-1 -1)"/><path d="M33.88,30.68c-8.11-1.56-8.86-.75-10.2,7.26-2.22,13.26-1.05,26.49-.17,39.74.19,2.82.63,5.69.28,8.46C23.6,87.6,22,88.88,21,90.25,19.9,89.19,18.4,88.31,17.9,87a15.16,15.16,0,0,1-.64-5.38q-.11-22-.12-43.93c0-9.23,3.83-13.29,13-13.8a3.82,3.82,0,0,0,3-1.29c-1.93-.21-3.85-.49-5.79-.61-5.52-.35-11-5.27-10.4-10,.22-1.78,2.07-3.37,3.18-5,.86,1.34,2.28,2.61,2.47,4,.64,4.7,4.2,4.78,7.44,4.87,3.62.1,4-2.26,3.67-5.45-.14-1.22,1.55-2.66,2.41-4,1.3,1.26,3.22,2.3,3.75,3.83.76,2.21-1.16,5.75,3.34,5.7,3.95-.05,7.12-.95,7.64-5.87.16-1.49,2-2.81,3.09-4.21,1,1.72,2.71,3.39,2.83,5.17.41,5.67-3.93,10-9.75,10.39a10.87,10.87,0,0,0-6,1.84c3,.56,6,.9,8.86,1.72,5.93,1.7,9.51,10.1,6.47,15.36-.69,1.19-2.51,1.72-3.81,2.55a26.23,26.23,0,0,1-2.16-3.63c-.28-.68.28-1.67.1-2.44-.5-2.12-.6-5.33-1.93-6A10.75,10.75,0,0,0,41,30.54c-1,.33-1.39,3.71-1.35,5.69.05,2.84,1,6.76-2.76,6.74-4,0-3.11-4.16-3-7.06C33.92,34.14,33.88,32.36,33.88,30.68Z" transform="translate(-1 -1)"/><path d="M90.06,111.38c-2.45.92-4.9,2.59-7.36,2.63q-21.7.29-43.41-.18c-2.17,0-4.32-1.68-6.47-2.58,2-1.37,3.84-3.36,6.05-4,2.81-.76,5.93-.54,8.91-.5,10.45.12,20.9.21,31.34.61,3.61.14,7.19,1.15,10.79,1.77Z" transform="translate(-1 -1)"/><path class="cls-1" d="M56.86,141.88v5.68c-5.24,0-10.35.12-15.43-.11-.91,0-1.75-1.52-2.63-2.33,1-1.08,2-3,3.11-3.09C46.69,141.68,51.51,141.88,56.86,141.88Z" transform="translate(-1 -1)"/><path class="cls-1" d="M63.32,141.85c5,0,9.3-.2,13.53.13,1.18.09,2.24,1.76,3.36,2.7-1.06,1-2.06,2.7-3.2,2.79-4.24.33-8.53.13-13.27.13Z" transform="translate(-1 -1)"/></g></g></svg>